<?xml version="1.0" encoding="utf-8"?>
<!-- Generator: Adobe Illustrator 25.0.0, SVG Export Plug-In . SVG Version: 6.00 Build 0)  -->
<svg version="1.1" id="Calque_1" xmlns="http://www.w3.org/2000/svg" xmlns:xlink="http://www.w3.org/1999/xlink" x="0px" y="0px"
	 viewBox="0 0 283.46 283.46" style="enable-background:new 0 0 283.46 283.46;" xml:space="preserve">
<g>
	<g>
		<path d="M102.54,58.76c0-3-0.11-5.19,0.02-7.35c0.94-15.62,12.74-24.95,27.78-21.24c4.57,1.13,5.85,0.45,7.53-3.81
			c3.03-7.71,9.12-12.33,17.63-13.16c9.18-0.89,16.24,2.83,20.95,10.56c1.78,2.92,2.72,4.31,6.78,3
			c15.95-5.13,28.94,4.05,29.73,20.84c0.44,9.38,0.11,18.79,0.12,28.18c0.01,16.53,0,33.05,0,50.56c3.43-1.4,6-2.67,8.7-3.52
			c15.51-4.85,33.08,2.19,41.59,16.38c2.51,4.19-1.35,5.46-3.16,7.29c-19.72,20.1-39.48,40.16-59.49,59.97
			c-3.84,3.8-5.77,7.57-5.39,13c0.42,6.05,0.23,12.16,0.05,18.23c-0.32,11.38-7.88,19.61-19.16,19.77
			c-23.52,0.32-47.05,0.33-70.56-0.04c-10.96-0.17-18.19-8.21-18.69-19.3c-0.09-1.93-0.18-3.88-0.01-5.8
			c1.15-12.99-1.09-24.62-9.35-35.61c-6.64-8.83-8.72-19.84-8.51-31.37c0.49-27.33,0.13-54.67,0.15-82.01
			C69.27,62.15,80.88,53.21,102.54,58.76z M146.21,81.28c-0.03,0-0.05,0-0.08,0c0,13.82-0.13,27.65,0.08,41.47
			c0.06,4.08,2.19,8.44-4.94,8.54c-6.72,0.1-5.65-3.92-5.62-8.26c0.17-23.77,0.17-47.53,0.12-71.3c-0.01-7.1-3.45-11.75-10.84-12.05
			c-7.38-0.3-11.07,4.15-11.96,11.1c-0.31,2.45-0.18,4.97-0.18,7.46c-0.02,21.29-0.01,42.58-0.04,63.86
			c-0.01,4.37,0.88,9.47-6.18,9.04c-6.66-0.41-3.98-5.26-4-8.69c-0.08-14.1-0.08-28.2-0.05-42.3c0.01-3.71-0.49-7.17-3.38-9.85
			c-3.54-3.29-7.48-4.51-12.16-2.56c-6.09,2.54-7.52,7.61-7.51,13.5c0.01,28.43-0.03,56.87,0.07,85.3
			c0.03,8.97,1.02,18.27,6.84,25.16c10.11,11.96,12.15,25.42,10.7,40.13c-0.13,1.37-0.06,2.76-0.01,4.15
			c0.31,8.14,3.48,11.33,11.84,11.37c21.6,0.09,43.19,0.1,64.79-0.01c8.08-0.04,11.36-3.48,11.53-11.74
			c0.15-7.19,0.27-14.39-0.05-21.56c-0.2-4.51,1.24-7.72,4.44-10.92c17.96-17.97,35.7-36.15,53.5-54.27
			c7.56-7.69,5.83-13.62-4.96-16.6c-7.53-2.07-14.16-0.52-19.63,5.37c-5.26,5.65-10.78,11.06-16,16.74
			c-2.59,2.82-4.48,4.2-7.96,0.73c-3.37-3.36-2.53-5.44,0.52-7.96c4.58-3.8,7.91-8.04,7.83-14.63c-0.32-27.64-0.27-55.28-0.45-82.93
			c-0.06-8.86-4.62-14.42-11.43-14.4c-6.82,0.02-11.35,5.52-11.41,14.47c-0.14,24.6-0.12,49.21-0.14,73.81
			c0,3.26,2.43,7.61-3.93,7.7c-5.77,0.09-6.48-3.23-6.46-8.05c0.16-28.2,0.1-56.4,0.06-84.6c-0.02-9.97-3.93-15.17-11.23-15.26
			c-7.33-0.09-11.63,5.23-11.71,14.92C146.13,52.53,146.21,66.91,146.21,81.28z"/>
		<path d="M141.49,269.44c9.41,0,18.82-0.02,28.22,0.01c3.84,0.02,7.65,0.63,7.39,5.61c-0.23,4.45-3.91,4.77-7.37,4.78
			c-19.09,0.02-38.19,0.02-57.28,0c-3.83,0-7.64-0.58-7.38-5.59c0.23-4.47,3.91-4.78,7.35-4.8
			C122.12,269.41,131.81,269.44,141.49,269.44z"/>
		<path d="M282.62,411.05c0.87-4.94,5.67-6.58,7.41-10.66c1.35,4.47,2.69,8.75,1.33,13.33
			C288.92,411.58,285.85,411.21,282.62,411.05z"/>
		<path d="M260.35,414.17c1.44,0.48,2.87,0.96,4.99,1.67c-3.29,0.71-5.78,1.1-8.5-0.4c2.04-4.68,7.97-6.82,7.62-12.78
			C267.27,408.12,262.05,410.36,260.35,414.17z"/>
		<path d="M331.25,416.13c-2.66,0-5.09,0-7.87,0c1.15-5.44,8.44-7.14,6.94-13.5c1.45,4.43,1.97,4.97-1.27,8.05
			C324.61,414.9,329.86,414.52,331.25,416.13z"/>
		<path d="M142.1,216.05c-3.64,0.45-4.7-1.11-5.06-4.62c-1.66-16.3,5.14-28.65,16.92-39.16c3.26-2.91,4.59-0.96,6.57,1.01
			c1.96,1.95,4.49,3.59,1.14,6.54c-2.47,2.18-4.66,4.68-7.06,6.95c-6.61,6.26-7.71,14.26-7.27,22.75
			C147.54,213.31,147.66,217.07,142.1,216.05z"/>
	</g>
</g>
</svg>
