<?xml version="1.0" encoding="utf-8"?>
<!-- Generator: Adobe Illustrator 25.0.0, SVG Export Plug-In . SVG Version: 6.00 Build 0)  -->
<svg version="1.1" id="Calque_1" xmlns="http://www.w3.org/2000/svg" xmlns:xlink="http://www.w3.org/1999/xlink" x="0px" y="0px"
	 viewBox="0 0 283.46 283.46" style="enable-background:new 0 0 283.46 283.46;" xml:space="preserve">
<g>
	<g>
		<path d="M169.01,72.44c0-14.52-0.21-29.04,0.07-43.56c0.22-11.5,8.1-20.26,18.9-21.87c9.68-1.44,19.31,4.38,23.16,13.75
			c1.43,3.47,1.34,7.02,1.35,10.59c0.03,26.8,0.11,53.6-0.03,80.4c-0.03,5.02,0.45,8.68,5.99,11.05c6.14,2.63,9.79,8.24,10.39,15
			c0.88,9.91,1.01,19.91-0.41,29.78c-1.74,12.09-8.25,21.69-17.76,28.93c-12.19,9.28-16.92,20.62-15.6,36.24
			c1.51,17.8-6.67,24.84-24.84,24.85c-20.48,0.02-40.95,0.09-61.43-0.02c-14.3-0.08-21.94-7.66-22.43-21.9
			c-0.09-2.48-0.21-4.99,0.01-7.46c1-11.08-1.27-20.78-8.25-30.1c-7.01-9.37-9.51-20.8-9.3-32.82c0.4-22.65,0.21-45.3,0.35-67.95
			c0.11-18.7,13.17-28.15,31-22.19c3.01,1.01,4.35,0.81,6.01-1.76c1.32-2.04,3.04-4.49,5.13-5.24c8.22-2.93,7.63-7.98,4.96-14.67
			c-2.44-6.12-3.91-12.64-5.57-19.05c-3.28-12.61,3.02-24.33,14.64-27.51c12-3.29,23.23,2.87,27.17,15.44
			c4.54,14.48,8.62,29.09,12.92,43.64c0.66,2.25,1.43,4.46,2.15,6.69C168.06,72.62,168.53,72.53,169.01,72.44z M140.49,247.37
			c10.52,0,21.05,0.05,31.57-0.02c9.77-0.06,14.25-3.36,12.85-12.76c-3.05-20.54,4.3-35.7,20.7-47.35c1.11-0.79,1.97-1.94,2.99-2.87
			c6.71-6.16,9.68-14.05,10.18-22.87c0.36-6.34,0.28-12.72,0.12-19.07c-0.21-8.33-4.45-12.58-13.03-12.67
			c-11.07-0.12-22.14,0.19-33.21,0.38c-2.13,0.04-4.39-0.31-5.64,2.35c-4.45,9.46,1.8,19.97,12.25,20.29
			c4.98,0.15,9.97,0.16,14.95,0.03c4.09-0.11,4.76,2.58,4.13,5.44c-0.92,4.16,3.23,9.77-2.89,12.31c-1.85,0.77-6.27,1.5-6.56-1.23
			c-0.99-9.11-7.58-6.03-12.39-6.22c-11.44-0.45-20.88-9.96-20.81-21.44c0.03-4.7,0.4-9.42,0.02-14.08
			c-0.47-5.72,0.71-9.17,7.48-8.08c5.75,0.93,6.64-2.13,5.22-6.85c-2.06-6.87-4.09-13.76-6.11-20.65
			c-6.46-21.98-12.92-43.96-19.35-65.95c-1.63-5.57-4.81-9.22-10.99-9.56c-5.01-0.27-8.57,2.05-10.84,6.26
			c-2.98,5.51,6.83,39.49,12.23,42.9c0.23,0.15,0.49,0.26,0.73,0.39c8,4.41,11.85,11.12,11.85,20.3c0,17.13,0.31,34.26,0.37,51.38
			c0.04,13.1-4.63,20.52-14.85,24.1c-9.58,3.35-17.95,0.32-25.87-9.57c-1.44-1.79-2.68-4.08-5.2-2.34
			c-5.4,3.74-10.9,3.38-16.55,1.03c-2.66-1.11-4.17-0.87-4.21,2.45c-0.14,13.24-2.28,27.36,6.64,38.38
			c9.87,12.19,12.05,25.5,10.66,40.2c-0.1,1.1-0.04,2.21,0,3.32c0.3,8.98,3.16,11.97,11.99,12.07
			C119.44,247.47,129.97,247.38,140.49,247.37z M202.28,71.99c0-14.06-0.06-28.12,0.03-42.18c0.04-6.36-2.79-10.59-8.88-12.29
			c-7.72-2.15-14.1,3.92-14.15,13.7c-0.12,23.99-0.04,47.97-0.04,71.96c0,17.12-0.01,16.91,17.21,16.46c4.89-0.13,6-1.82,5.92-6.3
			C202.14,99.56,202.29,85.77,202.28,71.99z M135.72,113.55c0-8.83,0.12-17.65-0.03-26.48c-0.14-8.21-4.76-13.22-11.68-13.1
			c-6.57,0.12-11.22,5-11.3,12.72c-0.18,17.9-0.2,35.81,0.01,53.71c0.09,7.5,5.14,12.41,11.7,12.29c6.61-0.12,11.1-4.98,11.26-12.67
			C135.86,131.2,135.72,122.38,135.72,113.55z M102.04,112.82c0.13,0,0.26,0,0.39,0c0-5.8,0.09-11.6-0.02-17.4
			c-0.13-7.19-4.04-11.4-11.02-12.17c-6.36-0.7-11.78,4.73-11.96,12.07c-0.27,11.59-0.32,23.21,0.05,34.8
			c0.21,6.45,3.3,11.08,10.68,11.12c7.43,0.04,11.34-3.93,11.81-11.04C102.34,124.43,102.04,118.61,102.04,112.82z"/>
		<path d="M-337.87,248.64c-10.52,0-21.04,0.11-31.56-0.03c-14.65-0.19-22.59-8.06-22.91-22.53c-0.06-2.49-0.2-4.99,0.03-7.46
			c1-10.79-1.05-20.32-8.02-29.32c-6.89-8.89-9.25-19.87-9.2-31.26c0.09-23.5-0.07-46.99,0.06-70.49
			c0.1-18.31,13.36-27.8,30.59-21.77c3.36,1.18,4.56,0.44,6.64-2.08c9.03-10.93,19.13-12.38,31.37-4.48
			c2.58,1.66,3.75,1.59,6.28-0.07c11.71-7.7,21.69-6.43,30.82,4.02c2.27,2.6,3.57,2.86,6.73,1.68c17.03-6.32,30.6,3.25,30.86,21.48
			c0.06,3.87,0.33,7.77-0.05,11.6c-0.73,7.54,0.08,13.57,8.36,17.23c4.75,2.1,7.65,7.47,7.95,12.92
			c0.59,10.75,0.99,21.58-0.54,32.28c-1.35,9.44-6.15,17.34-13.67,22.95c-14.82,11.06-21.9,24.54-19.55,43.76
			c1.56,12.78-7.95,20.95-20.97,21.55c-0.55,0.03-1.11,0.01-1.66,0.01C-316.83,248.64-327.35,248.64-337.87,248.64z M-398.49,140.74
			c-2.75,17.87-1.48,32.2,6.94,43.16c8.2,10.66,10.86,21.89,9.6,34.7c-0.19,1.92-0.05,3.87-0.02,5.8
			c0.19,10.95,2.92,13.78,13.85,13.82c18.82,0.08,37.64,0.04,56.46,0.02c16.36-0.01,19.21-1.92,17.9-17.95
			c-1.28-15.57,2.58-27.4,15.19-37.35c8.89-7.02,17.96-15.1,18.15-28.24c0.11-7.73,0.51-15.48,0.22-23.19
			c-0.22-5.79-3.13-10.34-9.49-10.6c-12.69-0.52-25.4-0.74-38.11,0.16c-3.23,0.23-4.12,1.57-4.4,4.56
			c-1.13,11.89,4.93,18.46,16.48,18.26c18.21-0.32,15.72-3.31,16.02,14.45c0.06,3.34-0.2,5.89-4.73,5.86
			c-3.81-0.02-6.77-0.23-6.3-5.06c0.39-4.04-1.45-5.39-5.32-5.11c-8.19,0.59-16.22-2.27-24.64-0.5c-4.64,0.98-10.03-0.23-13.83-4.13
			c-2.02-2.07-3.2-2.38-6.01-0.45c-12.28,8.44-23.46,6.32-32.37-5.55c-1.38-1.84-1.84-4.68-5.48-2.7
			C-384.94,144.25-391.79,142.98-398.49,140.74z M-343.28,105.35c0.12,0,0.24,0,0.35,0c0-9.67,0.23-19.35-0.08-29.01
			c-0.22-7.03-5.11-11.8-11.44-11.62c-6.88,0.2-11.23,4.17-11.37,10.76c-0.41,19.06-0.37,38.13-0.03,57.19
			c0.11,6.52,5.76,10.46,12.79,10.05c6.79-0.4,9.72-4.45,9.76-10.88C-343.24,123.01-343.28,114.18-343.28,105.35z M-309.6,89.85
			c-0.01,0-0.02,0-0.03,0c0-4.41,0.16-8.82-0.04-13.22c-0.31-7.02-3.86-11.41-11.1-11.92c-6.33-0.44-11.75,4.26-11.82,11.17
			c-0.19,18.99,0.14,37.99,0.38,56.99c0.06,4.52,2.36,7.87,6.65,9.53c1.21,0.47,2.89,0.78,3.96,0.29c1.67-0.76,0.51-2.41,0.14-3.58
			c-2.61-8.09-0.82-16.42-1.39-24.61c-0.18-2.59,0.65-4.63,3.57-4.22c10.34,1.46,9.95-5.33,9.7-12.19
			C-309.69,95.37-309.6,92.61-309.6,89.85z M-376.2,103.2c0-5.53,0.15-11.06-0.04-16.58c-0.26-7.71-4.76-12.51-11.43-12.59
			c-6.7-0.07-11.47,4.73-11.61,12.37c-0.21,11.32-0.23,22.66,0.01,33.98c0.16,7.43,5.3,12.7,11.78,12.19
			c7.16-0.56,10.91-4.94,11.23-11.97C-376,114.81-376.2,109-376.2,103.2z M-276.37,94.93c0-3.32,0.11-6.64-0.02-9.95
			c-0.29-7.11-3.91-11.43-11.13-11.93c-6.24-0.44-11.42,4.41-11.81,11.33c-0.4,7.16-0.07,14.37-0.14,21.55
			c-0.03,2.68,1.08,3.74,3.8,4.24C-279.51,113.13-276.33,110.7-276.37,94.93z"/>
		<path d="M140.94,279.86c-9.38,0-18.76-0.02-28.14,0.01c-3.79,0.01-7.88-0.35-8.12-4.96c-0.25-4.73,3.78-5.45,7.6-5.45
			c19.03-0.03,38.07-0.03,57.1-0.01c3.79,0,7.81,0.51,7.68,5.35c-0.13,4.82-4.27,5.04-7.98,5.05
			C159.7,279.88,150.32,279.86,140.94,279.86z"/>
		<path d="M-338.76,260.4c9.92,0,19.84,0.05,29.76-0.03c3.65-0.03,7.1,0.65,7.12,4.89c0.02,4.06-3.15,5.25-6.93,5.24
			c-19.84-0.05-39.68-0.05-59.52,0.02c-3.73,0.01-7.02-1.04-7.13-5.06c-0.12-4.19,3.22-5.11,6.94-5.08
			C-358.6,260.46-348.68,260.4-338.76,260.4z"/>
		<path d="M28.62,411.05c0.87-4.94,5.67-6.58,7.41-10.66c1.35,4.47,2.69,8.75,1.33,13.33C34.92,411.58,31.85,411.21,28.62,411.05z"
			/>
		<path d="M6.35,414.17c1.44,0.48,2.87,0.96,4.99,1.67c-3.29,0.71-5.78,1.1-8.5-0.4c2.04-4.68,7.97-6.82,7.62-12.78
			C13.27,408.12,8.05,410.36,6.35,414.17z"/>
		<path d="M77.25,416.13c-2.66,0-5.09,0-7.87,0c1.15-5.44,8.44-7.14,6.94-13.5c1.45,4.43,1.97,4.97-1.27,8.05
			C70.61,414.9,75.86,414.52,77.25,416.13z"/>
		<path d="M142.03,216.05c-2.79,0.2-4.55-0.25-4.93-3.78c-1.76-16.51,4.03-29.5,17.03-39.78c3.4-2.69,4.64-0.75,6.73,1.09
			c2.55,2.24,3.2,4.27,0.18,6.59c-10.42,8.01-15.56,18.31-13.82,31.65C147.75,215.84,145.11,216.33,142.03,216.05z"/>
		<path d="M-341.51,194.01c-1.17-12.67,6.73-22.19,16.45-30.96c3.12-2.81,4.71-1.09,6.73,0.93c2,2,4.27,3.81,0.82,6.56
			c-10.41,8.29-15.83,18.7-13.96,32.35c0.55,4.02-2.49,4.08-5.44,4.19c-3.03,0.1-4.73-0.85-4.63-4.13
			C-341.45,200.48-341.51,198-341.51,194.01z"/>
	</g>
</g>
</svg>
